<?xml version="1.0" encoding="iso-8859-1"?><!DOCTYPE svg PUBLIC "-//W3C//DTD SVG 1.1//EN" "http://www.w3.org/Graphics/SVG/1.1/DTD/svg11.dtd"><svg viewBox="0 0 908 908" xmlns="http://www.w3.org/2000/svg" xmlns:xlink="http://www.w3.org/1999/xlink"><style>:root>svg{display:none}:root>svg:target{display:block}</style><svg viewBox="0 0 240.823 240.823" id="back" xmlns="http://www.w3.org/2000/svg"><path d="M57.633 129.007L165.93 237.268c4.752 4.74 12.451 4.74 17.215 0 4.752-4.74 4.752-12.439 0-17.179l-99.707-99.671 99.695-99.671c4.752-4.74 4.752-12.439 0-17.191-4.752-4.74-12.463-4.74-17.215 0L57.621 111.816c-4.679 4.691-4.679 12.511.012 17.191z"/></svg><svg viewBox="0 0 485 485" id="balance" xmlns="http://www.w3.org/2000/svg"><path d="M411.097 110H257.5V87.42c17.459-6.192 30-22.865 30-42.42 0-24.813-20.187-45-45-45s-45 20.187-45 45c0 19.555 12.541 36.228 30 42.42V110H73.903L0 272.057v3.259c0 46.068 37.479 83.548 83.548 83.548s83.548-37.479 83.548-83.548v-3.259L106.875 140H227.5v255h-72.241l-30 90H359.74l-30-90H257.5V140h120.625l-60.222 132.057v3.259c0 46.068 37.479 83.548 83.548 83.548S485 321.384 485 275.315v-3.259L411.097 110zM242.5 30c8.271 0 15 6.729 15 15s-6.729 15-15 15-15-6.729-15-15 6.729-15 15-15zM83.548 328.863c-24.321 0-44.894-16.301-51.397-38.548h102.794c-6.503 22.247-27.076 38.548-51.397 38.548zm45.222-68.548H38.327l45.222-99.164 45.221 99.164zM318.118 455H166.882l10-30h131.235l10.001 30zm83.334-293.849l45.222 99.164H356.23l45.222-99.164zm0 167.712c-24.321 0-44.894-16.301-51.397-38.548h102.794c-6.503 22.247-27.077 38.548-51.397 38.548z"/></svg><svg viewBox="0 0 512 512" id="basket" xmlns="http://www.w3.org/2000/svg"><path d="M337.034 420.796a15.12 15.12 0 002.484.207c7.2 0 13.555-5.2 14.778-12.537l15-90c1.362-8.171-4.158-15.9-12.33-17.262-8.172-1.366-15.9 4.158-17.262 12.33l-15 90c-1.362 8.172 4.158 15.901 12.33 17.262zM158.704 408.466c1.223 7.337 7.577 12.537 14.778 12.537.819 0 1.649-.067 2.484-.207 8.172-1.362 13.692-9.09 12.33-17.262l-15-90c-1.362-8.172-9.089-13.691-17.262-12.33-8.172 1.362-13.692 9.09-12.33 17.262z"/><path d="M497 181h-52.791L328.713 36.63c-5.174-6.467-14.613-7.518-21.083-2.342-6.469 5.175-7.518 14.614-2.342 21.083L405.791 181H106.209L206.713 55.371c5.175-6.469 4.126-15.909-2.342-21.083-6.47-5.176-15.909-4.126-21.083 2.342L67.791 181H15c-8.284 0-15 6.716-15 15v60c0 8.284 6.716 15 15 15h18.686l56.892 199.121A14.998 14.998 0 00105 481h302a15 15 0 0014.423-10.879L478.314 271H497c8.284 0 15-6.716 15-15v-60c0-8.284-6.716-15-15-15zM395.686 451H116.314L64.886 271h382.229zM482 241H30v-30h452z"/><path d="M256 421c8.284 0 15-6.716 15-15v-90c0-8.284-6.716-15-15-15s-15 6.716-15 15v90c0 8.285 6.716 15 15 15z"/></svg><svg viewBox="0 0 36 30" id="cart" xmlns="http://www.w3.org/2000/svg"><path d="M35.29 6.19c-.78 1.646-4.215 9.584-4.683 10.318a6.735 6.735 0 00-.151.256c-.457.781-.94 1.382-2.603 1.382H11.981c.331 1.012 1.026 2.258 2.466 2.258h13.737a.735.735 0 010 1.468H14.447c-2.038 0-3.528-1.594-4.083-4.042-.306-1.35-4.024-13.792-4.29-14.768-.285-.619-.951-1.065-1.596-1.065H1.094a.735.735 0 010-1.469h3.384c1.26 0 2.452.068 2.967 1.264a.513.513 0 01.032.097c.148.533 3.23 11.466 4.108 14.785H27.85c.954 0 1.047-.166 1.332-.652.057-.097.115-.198.183-.302.436-.684 3.849-8.575 4.576-10.109.302-.792.248-1.224.165-1.346-.054-.08-.23-.126-.471-.126-1.591.025-21.795 0-22.497 0a.736.736 0 010-1.473c.173 0 20.891.026 22.482 0 .969 0 1.455.414 1.696.764.44.64.432 1.57-.025 2.76zM14.055 22.6a3.442 3.442 0 013.438 3.438 3.437 3.437 0 11-3.438-3.438zm0 5.46a2.025 2.025 0 002.024-2.022 2.025 2.025 0 00-2.024-2.024 2.025 2.025 0 00-2.023 2.024 2.03 2.03 0 002.023 2.023zM28.033 22.6a3.442 3.442 0 013.438 3.438 3.437 3.437 0 11-3.438-3.438zm0 5.46a2.025 2.025 0 002.023-2.022 2.025 2.025 0 00-2.023-2.024 2.025 2.025 0 00-2.023 2.024c0 1.116.91 2.023 2.023 2.023z"/></svg><svg viewBox="0 0 512 512" id="clock" xmlns="http://www.w3.org/2000/svg"><path d="M347.216 301.211l-71.387-53.54V138.609c0-10.966-8.864-19.83-19.83-19.83-10.966 0-19.83 8.864-19.83 19.83v118.978c0 6.246 2.935 12.136 7.932 15.864l79.318 59.489a19.713 19.713 0 0011.878 3.966c6.048 0 11.997-2.717 15.884-7.952 6.585-8.746 4.8-21.179-3.965-27.743z"/><path d="M256 0C114.833 0 0 114.833 0 256s114.833 256 256 256 256-114.833 256-256S397.167 0 256 0zm0 472.341c-119.275 0-216.341-97.066-216.341-216.341S136.725 39.659 256 39.659c119.295 0 216.341 97.066 216.341 216.341S375.275 472.341 256 472.341z"/></svg><svg viewBox="0 0 329.269 329" id="close" xmlns="http://www.w3.org/2000/svg"><path d="M194.8 164.77L323.013 36.555c8.343-8.34 8.343-21.825 0-30.164-8.34-8.34-21.825-8.34-30.164 0L164.633 134.605 36.422 6.391c-8.344-8.34-21.824-8.34-30.164 0-8.344 8.34-8.344 21.824 0 30.164l128.21 128.215L6.259 292.984c-8.344 8.34-8.344 21.825 0 30.164a21.266 21.266 0 0015.082 6.25c5.46 0 10.922-2.09 15.082-6.25l128.21-128.214 128.216 128.214a21.273 21.273 0 0015.082 6.25c5.46 0 10.922-2.09 15.082-6.25 8.343-8.34 8.343-21.824 0-30.164zm0 0"/></svg><svg viewBox="0 0 256 256" id="cmn--arrow_down" xmlns="http://www.w3.org/2000/svg"><path d="M225.813 48.907L128 146.72 30.187 48.907 0 79.093l128 128 128-128z"/></svg><svg viewBox="0 0 256 256" id="cmn--arrow_left" xmlns="http://www.w3.org/2000/svg"><path d="M207.093 30.187L176.907 0l-128 128 128 128 30.186-30.187L109.28 128z"/></svg><svg viewBox="0 0 256 256" id="cmn--arrow_right" xmlns="http://www.w3.org/2000/svg"><path d="M79.093 0L48.907 30.187 146.72 128l-97.813 97.813L79.093 256l128-128z"/></svg><svg viewBox="0 0 451.847 451.846" id="cmn--arrow_up" xmlns="http://www.w3.org/2000/svg"><path d="M248.292 106.406l194.281 194.29c12.365 12.359 12.365 32.391 0 44.744-12.354 12.354-32.391 12.354-44.744 0L225.923 173.529 54.018 345.44c-12.36 12.354-32.395 12.354-44.748 0-12.359-12.354-12.359-32.391 0-44.75L203.554 106.4c6.18-6.174 14.271-9.259 22.369-9.259 8.095 0 16.192 3.091 22.369 9.265z"/></svg><svg viewBox="0 0 16 16" id="cmn--badge_lock" xmlns="http://www.w3.org/2000/svg"><path fill-rule="evenodd" clip-rule="evenodd" d="M1.805.862l-.943.943 2.71 2.71c-.253.21-.502.434-.75.673A15.535 15.535 0 00.772 7.64l-.23.36.23.359c.103.161.292.432.557.777.44.57.94 1.141 1.493 1.676 1.62 1.567 3.36 2.52 5.178 2.52 1.147 0 2.263-.379 3.337-1.053l2.858 2.858.943-.942L1.805.862zm8.558 10.444l-1.008-1.008a2.667 2.667 0 01-3.652-3.652L4.52 5.463c-.258.208-.515.437-.77.683A14.218 14.218 0 002.143 8 14.216 14.216 0 003.75 9.854C5.145 11.205 6.597 12 8 12c.779 0 1.572-.245 2.363-.694zm-3.651-3.65a1.335 1.335 0 001.633 1.633L6.712 7.655zm6.687 2.938l-.943-.942A14.4 14.4 0 0013.856 8a14.22 14.22 0 00-1.605-1.854C10.855 4.796 9.403 4 8 4c-.348 0-.7.05-1.052.144L5.893 3.089A5.658 5.658 0 018 2.667c1.818 0 3.557.954 5.178 2.52a15.542 15.542 0 012.05 2.454l.23.36-.23.359c-.103.161-.292.432-.557.777-.381.493-.807.987-1.272 1.457z"/><path fill-rule="evenodd" clip-rule="evenodd" d="M1.805.862l-.943.943 2.71 2.71c-.253.21-.502.434-.75.673A15.535 15.535 0 00.772 7.64l-.23.36.23.359c.103.161.292.432.557.777.44.57.94 1.141 1.493 1.676 1.62 1.567 3.36 2.52 5.178 2.52 1.147 0 2.263-.379 3.337-1.053l2.858 2.858.943-.942L1.805.862zm8.558 10.444l-1.008-1.008a2.667 2.667 0 01-3.652-3.652L4.52 5.463c-.258.208-.515.437-.77.683A14.218 14.218 0 002.143 8 14.216 14.216 0 003.75 9.854C5.145 11.205 6.597 12 8 12c.779 0 1.572-.245 2.363-.694zm-3.651-3.65a1.335 1.335 0 001.633 1.633L6.712 7.655zm6.687 2.938l-.943-.942A14.4 14.4 0 0013.856 8a14.22 14.22 0 00-1.605-1.854C10.855 4.796 9.403 4 8 4c-.348 0-.7.05-1.052.144L5.893 3.089A5.658 5.658 0 018 2.667c1.818 0 3.557.954 5.178 2.52a15.542 15.542 0 012.05 2.454l.23.36-.23.359c-.103.161-.292.432-.557.777-.381.493-.807.987-1.272 1.457z"/></svg><svg viewBox="0 0 20 14" id="cmn--badge_unlock" xmlns="http://www.w3.org/2000/svg"><path fill-rule="evenodd" clip-rule="evenodd" d="M10 .333c2.273 0 4.447 1.192 6.472 3.151a19.43 19.43 0 011.867 2.095c.332.431.568.77.697.972l.287.449-.287.449a19.432 19.432 0 01-2.563 3.067c-2.026 1.958-4.2 3.15-6.473 3.15-2.273 0-4.446-1.192-6.472-3.15A19.424 19.424 0 011.662 8.42a14.57 14.57 0 01-.697-.971l-.287-.45.287-.448c.129-.202.365-.541.697-.972a19.42 19.42 0 011.866-2.095C5.554 1.525 7.728.333 10 .333zm7.019 6.264a17.765 17.765 0 00-1.705-1.915C13.569 2.995 11.754 2 10 2s-3.568.995-5.313 2.682A17.772 17.772 0 002.681 7a17.774 17.774 0 002.007 2.318C6.431 11.003 8.245 12 10 12c1.755 0 3.57-.996 5.314-2.683A17.767 17.767 0 0017.32 7a17.026 17.026 0 00-.301-.403zM6.667 7a3.333 3.333 0 106.666 0 3.333 3.333 0 00-6.666 0zm5 0a1.667 1.667 0 11-3.333 0 1.667 1.667 0 013.333 0z"/></svg><svg viewBox="0 0 512.002 512.002" id="cmn--rating" xmlns="http://www.w3.org/2000/svg"><path d="M511.267 197.258a14.995 14.995 0 00-12.107-10.209l-158.723-23.065-70.985-143.827a14.998 14.998 0 00-26.901 0l-70.988 143.827-158.72 23.065a14.998 14.998 0 00-8.312 25.585l114.848 111.954-27.108 158.083a14.999 14.999 0 0021.763 15.812l141.967-74.638 141.961 74.637a15 15 0 0021.766-15.813l-27.117-158.081 114.861-111.955a14.994 14.994 0 003.795-15.375z"/></svg><svg viewBox="0 0 20 20" id="cmn--search" xmlns="http://www.w3.org/2000/svg"><path fill-rule="evenodd" clip-rule="evenodd" d="M15.219 8.92a6.311 6.311 0 00-6.301-6.305 6.31 6.31 0 00-6.309 6.296 6.31 6.31 0 006.311 6.314 6.31 6.31 0 006.299-6.306zm.854 5.32l3.013 3.008.48.48c.554.557.57 1.37.039 1.895-.526.52-1.331.5-1.88-.047a2592.531 2592.531 0 01-3.315-3.318c-.06-.059-.105-.133-.153-.194a8.934 8.934 0 01-12.293-1.566c-2.848-3.552-2.577-8.685.672-11.897 3.267-3.229 8.327-3.482 11.899-.59a8.91 8.91 0 011.538 12.228z"/></svg><svg viewBox="0 0 199.404 199.404" id="cmn--select" xmlns="http://www.w3.org/2000/svg"><path d="M199.404 63.993L171.12 35.709l-71.418 71.418-71.418-71.418L0 63.993l99.702 99.702z"/></svg><svg viewBox="0 0 512 512" id="dollar" xmlns="http://www.w3.org/2000/svg"><path d="M257 0C116.302 0 0 114.3 0 255s116.302 257 257 257 255-116.3 255-257S397.698 0 257 0z" fill="#fedb41"/><path d="M512 255c0 140.7-114.302 257-255 257V0c140.698 0 255 114.3 255 255z" fill="#fc3"/><path d="M257 60C149.598 60 60 147.599 60 255s89.598 197 197 197 195-89.599 195-197S364.402 60 257 60z" fill="#fea832"/><path d="M452 255c0 107.401-87.598 197-195 197V60c107.402 0 195 87.599 195 195z" fill="#fe9923"/><path d="M287 240h-15v-60h15c8.401 0 15 6.599 15 15 0 19.799 30 19.799 30 0 0-24.901-20.098-45-45-45h-15v-15c0-9.901-7.5-15-15-15s-15 5.099-15 15v15h-17c-24.902 0-45 20.099-45 45v30c0 24.901 20.098 45 45 45h17v62h-17c-8.401 0-15-6.599-15-15 0-19.799-30-19.799-30 0 0 24.901 20.098 45 45 45h17v15c0 9.901 7.5 15 15 15s15-5.099 15-15v-15h15c24.902 0 45-20.099 45-45v-32c0-24.901-20.098-45-45-45zm-45 0h-17c-8.401 0-15-6.599-15-15v-30c0-8.401 6.599-15 15-15h17v60zm60 77c0 8.401-6.599 15-15 15h-15v-62h15c8.401 0 15 6.599 15 15v32z" fill="#fedb41"/><path d="M287 240h-15v-60h15c8.401 0 15 6.599 15 15 0 19.799 30 19.799 30 0 0-24.901-20.098-45-45-45h-15v-15c0-9.901-7.5-15-15-15v272c7.5 0 15-5.099 15-15v-15h15c24.902 0 45-20.099 45-45v-32c0-24.901-20.098-45-45-45zm15 77c0 8.401-6.599 15-15 15h-15v-62h15c8.401 0 15 6.599 15 15v32z" fill="#fc3"/></svg><svg viewBox="0 0 512 512" id="email" xmlns="http://www.w3.org/2000/svg"><path d="M467 61H45C20.218 61 0 81.196 0 106v300c0 24.72 20.128 45 45 45h422c24.72 0 45-20.128 45-45V106c0-24.72-20.128-45-45-45zm-6.214 30L256.954 294.833 51.359 91h409.427zM30 399.788V112.069l144.479 143.24L30 399.788zM51.213 421l144.57-144.57 50.657 50.222c5.864 5.814 15.327 5.795 21.167-.046L317 277.213 460.787 421H51.213zM482 399.787L338.213 256 482 112.212v287.575z"/></svg><svg viewBox="0 0 511.999 511.999" id="eye" xmlns="http://www.w3.org/2000/svg"><path d="M508.745 246.041c-4.574-6.257-113.557-153.206-252.748-153.206S7.818 239.784 3.249 246.035a16.896 16.896 0 000 19.923c4.569 6.257 113.557 153.206 252.748 153.206s248.174-146.95 252.748-153.201a16.875 16.875 0 000-19.922zM255.997 385.406c-102.529 0-191.33-97.533-217.617-129.418 26.253-31.913 114.868-129.395 217.617-129.395 102.524 0 191.319 97.516 217.617 129.418-26.253 31.912-114.868 129.395-217.617 129.395z"/><path d="M255.997 154.725c-55.842 0-101.275 45.433-101.275 101.275s45.433 101.275 101.275 101.275S357.272 311.842 357.272 256s-45.433-101.275-101.275-101.275zm0 168.791c-37.23 0-67.516-30.287-67.516-67.516s30.287-67.516 67.516-67.516 67.516 30.287 67.516 67.516-30.286 67.516-67.516 67.516z"/></svg><svg viewBox="0 0 96.124 96.123" id="facebook" xmlns="http://www.w3.org/2000/svg"><path d="M72.089.02L59.624 0C45.62 0 36.57 9.285 36.57 23.656v10.907H24.037a1.96 1.96 0 00-1.96 1.961v15.803a1.96 1.96 0 001.96 1.96H36.57v39.876a1.96 1.96 0 001.96 1.96h16.352a1.96 1.96 0 001.96-1.96V54.287h14.654a1.96 1.96 0 001.96-1.96l.006-15.803a1.963 1.963 0 00-1.961-1.961H56.842v-9.246c0-4.444 1.059-6.7 6.848-6.7l8.397-.003a1.96 1.96 0 001.959-1.96V1.98A1.96 1.96 0 0072.089.02z"/></svg><svg viewBox="0 0 96 96" id="fprint" xmlns="http://www.w3.org/2000/svg"><path d="M89.692 75.508c-.12 0-.252-.016-.38-.04a1.999 1.999 0 01-1.584-2.344c2.252-11.648 1.908-21.296 1.696-27.068l-.048-1.3c0-22.504-18.608-40.752-41.476-40.752-12.64 0-24.928 6.116-32.876 16.352a1.995 1.995 0 01-2.808.352 1.995 1.995 0 01-.352-2.804C20.564 6.692 34.036 0 47.9 0c25.076 0 45.476 20.044 45.476 44.684l.04 1.16c.22 6.008.58 15.944-1.76 28.048a2.005 2.005 0 01-1.964 1.616zM4.428 54.116c-1.104 0-2-.9-2-2v-7.168c0-7.096 1.796-14.632 4.928-20.68a1.993 1.993 0 012.696-.852c.98.504 1.364 1.72.856 2.692-2.844 5.496-4.48 12.364-4.48 18.84v7.168a2 2 0 01-2 2z"/><path d="M6.28 61.868a2 2 0 010-4c2.364 0 4.148-1.904 4.148-4.42v-8.496c0-19.72 17.024-36.384 37.18-36.384 5.016 0 10.216 1.008 14.628 2.84 1.024.42 1.508 1.592 1.084 2.612s-1.592 1.504-2.612 1.084c-3.94-1.632-8.588-2.532-13.096-2.532-17.984 0-33.18 14.832-33.18 32.384v8.496c-.004 4.72-3.584 8.416-8.152 8.416zM77.42 87.572c-.236 0-.468-.04-.696-.132a1.994 1.994 0 01-1.184-2.568c6.104-16.448 5.568-31.332 5.304-38.488l-.02-.504c-.024-.46-.04-.86-.04-1.2 0-9.828-4.532-18.996-12.444-25.148a1.992 1.992 0 01-.352-2.804 1.995 1.995 0 012.804-.352c8.896 6.916 13.992 17.228 13.992 28.304 0 .292.016.636.032 1.028l.02.428c.268 7.512.832 22.932-5.544 40.124a1.988 1.988 0 01-1.872 1.312z"/><path d="M65.78 92.592c-.3 0-.608-.072-.904-.22a1.996 1.996 0 01-.876-2.68c9.16-18.04 8.54-34.916 8.248-43.032-.04-.98-.06-1.52-.06-1.972 0-12.992-10.896-23.556-24.288-23.556-3.696 0-7.28.844-10.644 2.508a2.004 2.004 0 01-2.68-.908 1.998 1.998 0 01.908-2.68c3.92-1.94 8.1-2.92 12.416-2.92 15.596 0 28.288 12.36 28.288 27.556 0 .416.02.904.044 1.468.296 8.148.964 26.392-8.664 45.34a1.988 1.988 0 01-1.788 1.096zM21.612 46.948a2 2 0 01-2-2c0-7.744 3.452-15.248 9.476-20.588a2 2 0 012.656 2.992c-5.164 4.584-8.128 10.996-8.128 17.596-.004 1.104-.9 2-2.004 2zM6.576 70.792a2.001 2.001 0 01-1.92-1.432 2.003 2.003 0 011.36-2.484L9.78 65.78c7.624-2.224 9.832-4.988 9.832-12.328 0-1.096.896-2 2-2s2 .904 2 2c0 9.084-3.444 13.468-12.712 16.168l-3.764 1.092c-.188.056-.376.08-.56.08z"/><path d="M53.804 96a1.96 1.96 0 01-1.112-.336 2.001 2.001 0 01-.544-2.776c7.92-11.784 11.736-25.232 11.632-41.104 0-1.096.888-2.004 1.992-2.008.928-.076 2 .884 2.008 1.988.1 16.476-4.04 31.06-12.312 43.36a2.007 2.007 0 01-1.664.876zM11.868 77.916a2.005 2.005 0 01-1.92-1.436 2.005 2.005 0 011.36-2.484c10.88-3.164 15.116-8.924 15.116-20.548v-8.496c0-10.26 9.62-19.26 20.584-19.26 10.86 0 19.7 8.52 19.7 18.996a2 2 0 01-4 0c0-8.268-7.044-14.996-15.7-14.996-8.68 0-16.584 7.276-16.584 15.26v8.496c0 13.244-5.552 20.756-18 24.392-.18.052-.372.076-.556.076zM43.28 95.816a1.996 1.996 0 01-1.548-3.26c5.336-6.54 9.132-13.976 11.28-22.116.284-1.072 1.396-1.708 2.44-1.42a1.992 1.992 0 011.424 2.44c-2.292 8.7-6.348 16.648-12.048 23.628a1.98 1.98 0 01-1.548.728z"/><path d="M19.068 85.124a2.003 2.003 0 01-.684-3.884c16.568-6.032 20.044-18.448 20.044-27.804V44.94c0-5.996 4.52-10.692 10.288-10.692 5.892 0 10.696 4.68 10.696 10.428 0 .728.064 1.652.128 2.752.14 2.176.332 5.168.2 8.6-.044 1.1-1.016 1.964-2.08 1.92a2.009 2.009 0 01-1.92-2.084c.128-3.232-.052-5.98-.188-8.188-.084-1.2-.14-2.212-.14-3.004 0-3.544-3.008-6.428-6.7-6.428-3.528 0-6.288 2.94-6.288 6.692v8.496c0 10.632-3.932 24.736-22.676 31.568-.22.088-.452.124-.68.124z"/><path d="M43.968 77.392a1.998 1.998 0 01-1.772-2.92c2.888-5.568 4.232-11.708 4.232-19.328v-7.028a2 2 0 014 0v7.028c0 8.284-1.492 15.016-4.68 21.172a2.004 2.004 0 01-1.78 1.076zM29.368 91.956c-.68 0-1.344-.348-1.72-.972a2 2 0 01.692-2.744c3.42-2.04 6.344-4.452 8.692-7.164a2.001 2.001 0 012.82-.204 2 2 0 01.204 2.82c-2.628 3.032-5.88 5.724-9.668 7.984-.32.192-.672.28-1.02.28z"/></svg><svg viewBox="0 0 17 17" id="home" xmlns="http://www.w3.org/2000/svg"><path d="M16.098 16.23a.284.284 0 01-.284.283H1.185a.283.283 0 01-.283-.283V8.682c0-.271.283-.566.283-.566L8.3 1.033a.287.287 0 01.402-.005l7.069 7.088s.31.312.327.566z"/></svg><svg viewBox="0 0 512 512" id="instagram" xmlns="http://www.w3.org/2000/svg"><path d="M363.273 0H148.728C66.719 0 0 66.719 0 148.728v214.544C0 445.281 66.719 512 148.728 512h214.544C445.281 512 512 445.281 512 363.273V148.728C512 66.719 445.281 0 363.273 0zM472 363.272C472 423.225 423.225 472 363.273 472H148.728C88.775 472 40 423.225 40 363.273V148.728C40 88.775 88.775 40 148.728 40h214.544C423.225 40 472 88.775 472 148.728v214.544z"/><path d="M256 118c-76.094 0-138 61.906-138 138s61.906 138 138 138 138-61.906 138-138-61.906-138-138-138zm0 236c-54.037 0-98-43.963-98-98s43.963-98 98-98 98 43.963 98 98-43.963 98-98 98z"/><circle cx="396" cy="116" r="20"/></svg><svg viewBox="0 0 14 10" id="more_arrow" xmlns="http://www.w3.org/2000/svg"><path d="M.372 5.744h9.366L6.195 9.288H8.7l4.43-4.429L8.698.431H6.195l3.543 3.542H.372z"/></svg><svg viewBox="0 0 58 58" id="phone-call" xmlns="http://www.w3.org/2000/svg"><g fill-rule="nonzero"><path d="M24.017 33.983c-5.536-5.536-6.786-11.072-7.068-13.29a1.988 1.988 0 01.571-1.664L22 14.551a2 2 0 00.282-2.475L15.149 1a2 2 0 00-2.591-.729L1.107 5.664a1.989 1.989 0 00-1.1 1.987c.6 5.7 3.085 19.712 16.855 33.483s27.78 16.255 33.483 16.855a1.989 1.989 0 001.987-1.1l5.393-11.451A2 2 0 0057 42.851L45.924 35.72a2 2 0 00-2.475.28l-4.478 4.48c-.436.439-1.05.65-1.664.571-2.218-.282-7.754-1.532-13.29-7.068z"/><path d="M46 31a2 2 0 01-2-2c-.01-8.28-6.72-14.99-15-15a2 2 0 110-4c10.489.012 18.988 8.511 19 19a2 2 0 01-2 2z"/><path d="M56 31a2 2 0 01-2-2C53.985 15.2 42.8 4.015 29 4a2 2 0 110-4c16.009.018 28.982 12.991 29 29a2 2 0 01-2 2z"/></g></svg><svg viewBox="0 0 349.03 349.031" id="plus" xmlns="http://www.w3.org/2000/svg"><path d="M349.03 141.226v66.579a9.078 9.078 0 01-9.079 9.079H216.884v123.067a9.077 9.077 0 01-9.079 9.079h-66.579c-5.009 0-9.079-4.061-9.079-9.079V216.884H9.079A9.08 9.08 0 010 207.805v-66.579a9.079 9.079 0 019.079-9.079h123.068V9.079c0-5.018 4.069-9.079 9.079-9.079h66.579a9.078 9.078 0 019.079 9.079v123.068h123.067a9.077 9.077 0 019.079 9.079z"/></svg><svg viewBox="0 0 20 32" id="pnone" xmlns="http://www.w3.org/2000/svg"><path d="M17 0H3a3 3 0 00-3 3v26a3 3 0 003 3h14a3 3 0 003-3V3a3 3 0 00-3-3zm-7 30c-1.106 0-2-.894-2-2 0-1.106.894-2 2-2 1.106 0 2 .894 2 2 0 1.106-.894 2-2 2zm7-6.75c0 .413-.337.75-.75.75H3.75a.752.752 0 01-.75-.75V3.75c0-.413.337-.75.75-.75h12.5c.413 0 .75.337.75.75v19.5z"/></svg><svg viewBox="0 0 27 26" id="search" xmlns="http://www.w3.org/2000/svg"><path fill="#fff" d="M1.482 21.662l7.982-7.98a2.256 2.256 0 012.085-.608c-2.37-3.211-2.103-7.773.803-10.68 3.202-3.2 8.41-3.2 11.612 0a8.158 8.158 0 012.403 5.808 8.155 8.155 0 01-2.404 5.805 8.155 8.155 0 01-5.806 2.402 8.144 8.144 0 01-4.892-1.612 2.25 2.25 0 01-.61 2.077l-7.978 7.98a2.257 2.257 0 11-3.195-3.192zm12.628-9.411a5.734 5.734 0 008.098-.002 5.733 5.733 0 000-8.098 5.734 5.734 0 00-8.099.003 5.68 5.68 0 00-1.674 4.047c0 1.53.595 2.97 1.675 4.05z"/></svg><svg viewBox="-21 -81 681.335 681" id="twitter" xmlns="http://www.w3.org/2000/svg"><path d="M200.965 515.293c241.05 0 372.87-199.703 372.87-372.871 0-5.672-.116-11.32-.37-16.938a266.692 266.692 0 0065.37-67.863c-23.48 10.441-48.753 17.461-75.257 20.637 27.055-16.23 47.828-41.895 57.625-72.488a262.838 262.838 0 01-83.215 31.808c-23.914-25.473-57.965-41.402-95.664-41.402-72.367 0-131.058 58.687-131.058 131.031 0 10.29 1.152 20.29 3.398 29.883C205.746 151.61 109.16 99.465 44.531 20.168 33.281 39.531 26.79 62.031 26.79 86.039c0 45.461 23.137 85.606 58.316 109.082-21.5-.66-41.695-6.562-59.351-16.387-.02.551-.02 1.086-.02 1.672 0 63.469 45.172 116.461 105.145 128.469a131.531 131.531 0 01-34.559 4.61c-8.43 0-16.648-.829-24.632-2.364 16.683 52.07 65.066 89.961 122.425 91.024-44.855 35.156-101.36 56.097-162.77 56.097-10.562 0-21.003-.605-31.261-1.816 58 37.176 126.871 58.87 200.887 58.87"/></svg><svg viewBox="-21 -117 682.667 682" id="youtube" xmlns="http://www.w3.org/2000/svg"><path d="M626.813 64.035c-7.375-27.418-28.993-49.031-56.407-56.414C520.324-6.082 319.992-6.082 319.992-6.082s-200.324 0-250.406 13.184c-26.887 7.375-49.031 29.52-56.406 56.933C0 114.113 0 217.97 0 217.97s0 104.379 13.18 153.933c7.382 27.414 28.992 49.028 56.41 56.41C120.195 442.02 320 442.02 320 442.02s200.324 0 250.406-13.184c27.418-7.379 49.032-28.992 56.414-56.406 13.176-50.082 13.176-153.934 13.176-153.934s.527-104.383-13.183-154.46zM256.21 313.915V122.022l166.586 95.946zm0 0"/></svg><svg viewBox="0 -77 512.002 512" id="youtube_1" xmlns="http://www.w3.org/2000/svg"><path d="M501.453 56.094c-5.902-21.934-23.195-39.223-45.125-45.13C416.262 0 255.996 0 255.996 0S95.734 0 55.668 10.547C34.16 16.449 16.445 34.164 10.543 56.094 0 96.156 0 179.242 0 179.242s0 83.504 10.543 123.149c5.906 21.93 23.195 39.222 45.129 45.129C96.156 358.484 256 358.484 256 358.484s160.262 0 200.328-10.546c21.934-5.903 39.223-23.196 45.129-45.125C512 262.745 512 179.663 512 179.663s.422-83.508-10.547-123.57zm0 0" fill="red"/><path d="M204.969 256l133.27-76.758-133.27-76.758zm0 0" fill="#fff"/></svg></svg>